# xmcd CD database file
#
# Track frame offsets:
#	150
#	12584
#	22856
#	35323
#	47728
#	63189
#	75809
#	88076
#	99295
#	112344
#
# Disc length: 1726 seconds
#
# Revision: 0
# Processed by: cddbd v1.5.1PL0 Copyright (c) Steve Scherf et al.
# Submitted via: CDex 1.51
#
DISCID=6c06bc0a
DTITLE=Various Artist - Oldies Rhythm and Blues Hits Vol 1
DYEAR=2002
DGENRE=Rhythmic Soul
TTITLE0=This Old Heart Of Mine
TTITLE1=In The Midnight Hour
TTITLE2=Get Ready
TTITLE3=I Cant Help Myself
TTITLE4=When She Was My Girl
TTITLE5=I Got You
TTITLE6=The Dock Of The Bay
TTITLE7=Where Did Our Love Go
TTITLE8=I Heard It Through The Grapevine
TTITLE9=Proud Mary
EXTD=YEAR: 2002
EXTT0=
EXTT1=
EXTT2=
EXTT3=
EXTT4=
EXTT5=
EXTT6=
EXTT7=
EXTT8=
EXTT9=
PLAYORDER=
